<svg width="529" height="466" viewBox="0 0 529 466" fill="none" xmlns="http://www.w3.org/2000/svg">
<ellipse cx="264" cy="235.5" rx="132" ry="131.5" fill="#889DE4"/>
<path d="M341 269V195C341 189.477 345.477 185 351 185H508.017C516.432 185 521.084 194.762 515.784 201.298L496.186 225.466C493.223 229.121 493.208 234.348 496.151 238.019L515.971 262.746C521.218 269.292 516.558 279 508.168 279H351C345.477 279 341 274.523 341 269Z" fill="#889DE4"/>
<path d="M188 269V195C188 189.477 183.523 185 178 185H20.9834C12.5676 185 7.91556 194.762 13.2162 201.298L32.8136 225.466C35.7772 229.121 35.792 234.348 32.849 238.019L13.029 262.746C7.78186 269.292 12.4422 279 20.8317 279H178C183.523 279 188 274.523 188 269Z" fill="#889DE4"/>
<path fill-rule="evenodd" clip-rule="evenodd" d="M438.43 137.477C436.789 148.968 439.943 160.06 446.433 169H415.872C391.041 110.243 332.846 69.3006 265.366 69.3006C197.445 69.3006 139.618 110.516 114.888 169H83.5494C90.0398 160.06 93.194 148.968 91.5524 137.477L87.0573 104.513C84.0605 76.0434 108.035 51.3199 136.504 55.0659L169.469 59.5611C185.202 61.8087 200.186 55.0659 209.925 43.0788L230.154 16.8569C248.134 -5.61897 282.597 -5.61897 299.829 16.8569L320.057 43.0788C329.797 55.0659 344.781 61.8087 360.514 59.5611L393.478 55.0659C421.948 52.0691 446.671 76.0434 442.925 104.513L438.43 137.477ZM265.366 395.95C334.724 395.95 394.272 352.252 417.867 291H451.621C441.718 300.678 436.398 314.294 438.43 328.523L442.925 361.487C445.922 389.957 421.948 414.68 393.478 410.934L360.514 406.439C344.781 404.191 329.797 410.934 320.057 422.921L299.829 449.143C281.848 471.619 247.385 471.619 230.154 449.143L209.925 422.921C200.186 410.934 185.202 404.191 169.469 406.439L136.504 410.934C108.035 413.931 83.3113 389.957 87.0573 361.487L91.5524 328.523C93.5851 314.294 88.2646 300.678 78.3618 291H112.748C136.262 352.554 195.893 395.95 265.366 395.95Z" fill="#889DE4"/>
<path d="M179.683 237.304L232.409 300.972C232.475 301.052 232.549 301.129 232.627 301.197C242.978 310.251 252.187 304.911 255.508 301.092L346.008 188.592C349.008 184.425 353.208 174.692 346.008 169.092C338.808 163.492 331.674 166.759 329.008 169.092L243.78 254.32C243.056 255.043 241.909 255.108 241.113 254.466C228.477 244.27 204.402 225.06 199.008 221.592C192.008 217.092 185.508 218.092 180.508 223.092C176.616 226.984 178.088 233.716 179.399 236.841C179.47 237.009 179.567 237.163 179.683 237.304Z" fill="white" stroke="#889DE4"/>
</svg>
