<svg width="510" height="504" viewBox="0 0 510 504" fill="none" xmlns="http://www.w3.org/2000/svg">
<path d="M254.725 445.361L468.303 235.571C523.166 181.681 523.166 94.3079 468.303 40.4174C413.439 -13.4725 324.489 -13.4725 269.626 40.4174L254.725 55.0542L239.824 40.4174C184.961 -13.4725 96.0105 -13.4725 41.1473 40.4174C-13.7158 94.3079 -13.7158 181.681 41.1473 235.571L254.725 445.361Z" fill="gray"/>
<mask id="path-2-outside-1_41_3491" maskUnits="userSpaceOnUse" x="114.075" y="129.282" width="275" height="375" fill="gray">
<rect fill="white" x="114.075" y="129.282" width="275" height="375"/>
<path fill-rule="evenodd" clip-rule="evenodd" d="M296.545 176.282C296.545 171.312 292.516 167.282 287.545 167.282H215.387C210.416 167.282 206.387 171.312 206.387 176.282V212.595C206.387 217.565 202.358 221.595 197.387 221.595H161.075C156.104 221.595 152.075 225.624 152.075 230.595V457C152.075 461.971 156.104 466 161.075 466H341.858C346.828 466 350.858 461.971 350.858 457V230.595C350.858 225.624 346.828 221.595 341.858 221.595H305.545C300.575 221.595 296.545 217.565 296.545 212.595V176.282Z"/>
</mask>
<path fill-rule="evenodd" clip-rule="evenodd" d="M296.545 176.282C296.545 171.312 292.516 167.282 287.545 167.282H215.387C210.416 167.282 206.387 171.312 206.387 176.282V212.595C206.387 217.565 202.358 221.595 197.387 221.595H161.075C156.104 221.595 152.075 225.624 152.075 230.595V457C152.075 461.971 156.104 466 161.075 466H341.858C346.828 466 350.858 461.971 350.858 457V230.595C350.858 225.624 346.828 221.595 341.858 221.595H305.545C300.575 221.595 296.545 217.565 296.545 212.595V176.282Z" fill="gray"/>
<path d="M215.387 205.282H287.545V129.282H215.387V205.282ZM244.387 212.595V176.282H168.387V212.595H244.387ZM161.075 259.595H197.387V183.595H161.075V259.595ZM190.075 457V230.595H114.075V457H190.075ZM341.858 428H161.075V504H341.858V428ZM312.858 230.595V457H388.858V230.595H312.858ZM305.545 259.595H341.858V183.595H305.545V259.595ZM258.545 176.282V212.595H334.545V176.282H258.545ZM305.545 183.595C321.562 183.595 334.545 196.578 334.545 212.595H258.545C258.545 238.552 279.588 259.595 305.545 259.595V183.595ZM388.858 230.595C388.858 204.637 367.815 183.595 341.858 183.595V259.595C325.842 259.595 312.858 246.611 312.858 230.595H388.858ZM341.858 504C367.815 504 388.858 482.958 388.858 457H312.858C312.858 440.984 325.842 428 341.858 428V504ZM114.075 457C114.075 482.958 135.117 504 161.075 504V428C177.091 428 190.075 440.984 190.075 457H114.075ZM161.075 183.595C135.117 183.595 114.075 204.637 114.075 230.595H190.075C190.075 246.611 177.091 259.595 161.075 259.595V183.595ZM168.387 212.595C168.387 196.578 181.371 183.595 197.387 183.595V259.595C223.344 259.595 244.387 238.552 244.387 212.595H168.387ZM287.545 205.282C271.529 205.282 258.545 192.299 258.545 176.282H334.545C334.545 150.325 313.503 129.282 287.545 129.282V205.282ZM215.387 129.282C189.43 129.282 168.387 150.325 168.387 176.282H244.387C244.387 192.299 231.403 205.282 215.387 205.282V129.282Z" fill="white" mask="url(#path-2-outside-1_41_3491)"/>
<path d="M258.22 255.004L188.509 334.443C188.351 334.622 188.224 334.835 188.142 335.06C182.503 350.6 196.473 359.698 204.021 359.698H245.424C247.009 359.698 247.964 361.454 247.103 362.784L225.318 396.452C225.241 396.571 225.155 396.677 225.057 396.777C219.439 402.483 210.838 416.277 220.315 427.045C229.764 437.783 241.053 433.837 245.683 430.423C245.791 430.343 245.886 430.253 245.974 430.152L315.141 351.26C315.287 351.093 315.407 350.896 315.489 350.691C322.967 331.962 309.753 323.979 301.982 322.265C301.847 322.235 301.714 322.222 301.576 322.222H262.032C260.442 322.222 259.488 320.458 260.358 319.127L287.119 278.229C289.834 274.246 292.984 263.999 283.86 254.875C274.819 245.834 263.254 250.977 258.464 254.77C258.375 254.841 258.295 254.918 258.22 255.004Z" fill="white"/>
</svg>
