<svg width="612" height="466" viewBox="0 0 612 466" fill="none" xmlns="http://www.w3.org/2000/svg">
<path fill-rule="evenodd" clip-rule="evenodd" d="M40.9734 287.815L54.5312 280.337C58.4242 278.307 61.6077 275.141 63.6589 271.259C65.7101 267.377 66.5321 262.963 66.0157 258.603C63.5575 241.608 63.5575 224.348 66.0157 207.354C66.5413 202.981 65.7187 198.551 63.6579 194.659C61.5972 190.766 58.3966 187.596 54.4846 185.573L40.9268 178.095C38.3009 176.708 35.9857 174.8 34.1228 172.487C32.2599 170.174 30.8885 167.506 30.0925 164.645C29.2966 161.784 29.0929 158.79 29.4938 155.848C29.8947 152.905 30.8917 150.075 32.424 147.532L70.0457 85.3569C73.3097 80.1574 78.4442 76.4083 84.3908 74.8826C90.3373 73.357 96.6426 74.1711 102.007 77.157L115.704 84.7279C119.897 86.9425 124.635 87.913 129.36 87.525C134.086 87.1371 138.602 85.4069 142.377 82.5382C155.885 72.6269 170.593 64.4633 186.149 58.2414C190.506 56.6874 194.293 53.8551 197.015 50.1147C199.738 46.3743 201.268 41.8998 201.407 37.2758V22.3669C201.548 16.3178 204.077 10.5703 208.442 6.37999C212.806 2.1897 218.652 -0.102738 224.702 0.00353687H299.852C305.902 -0.102738 311.748 2.1897 316.113 6.37999C320.478 10.5703 323.007 16.3178 323.147 22.3669V37.2758C323.286 41.8998 324.817 46.3743 327.539 50.1147C330.261 53.8551 334.048 56.6874 338.406 58.2414C353.965 64.4852 368.673 72.6724 382.177 82.6081C385.952 85.4768 390.469 87.207 395.194 87.5949C399.92 87.9829 404.658 87.0124 408.85 84.7978L422.548 77.2269C427.912 74.241 434.217 73.4269 440.164 74.9525C446.11 76.4782 451.245 80.2272 454.509 85.4268L472.418 115.224L343.791 193.518C336.779 179.015 326.009 166.613 312.562 157.628C297.664 147.673 280.149 142.36 262.231 142.36C250.333 142.36 238.553 144.703 227.561 149.256C216.57 153.809 206.583 160.482 198.17 168.895C189.758 177.307 183.085 187.294 178.532 198.286C174.629 207.707 172.35 217.708 171.779 227.865L29.4052 309.222C29.1482 306.547 29.387 303.846 30.1121 301.254C30.9125 298.393 32.2887 295.725 34.1563 293.414C36.0239 291.103 38.3436 289.198 40.9734 287.815ZM51.6394 350.177L69.9525 380.483C73.2165 385.683 78.3511 389.432 84.2976 390.957C90.2442 392.483 96.5494 391.669 101.913 388.683L115.611 381.112C119.804 378.897 124.541 377.927 129.267 378.315C133.993 378.703 138.509 380.433 142.284 383.302C155.789 393.237 170.496 401.425 186.055 407.668C190.413 409.222 194.2 412.055 196.922 415.795C199.644 419.535 201.175 424.01 201.314 428.634V443.636C201.454 449.685 203.984 455.433 208.348 459.623C212.713 463.813 218.559 466.106 224.609 465.999H299.666C305.716 466.106 311.561 463.813 315.926 459.623C320.291 455.433 322.82 449.685 322.961 443.636V428.634C323.1 424.01 324.631 419.535 327.353 415.795C330.075 412.055 333.862 409.222 338.219 407.668C353.775 401.447 368.483 393.283 381.991 383.372C385.766 380.503 390.282 378.773 395.008 378.385C399.733 377.997 404.471 378.967 408.664 381.182L422.361 388.753C427.725 391.739 434.031 392.553 439.977 391.027C445.924 389.502 451.058 385.752 454.322 380.553L491.851 318.448C493.381 315.901 494.376 313.069 494.773 310.125C495.171 307.18 494.963 304.185 494.163 301.324C493.362 298.463 491.986 295.795 490.119 293.484C488.251 291.173 485.931 289.268 483.301 287.885L469.744 280.407C465.834 278.381 462.635 275.21 460.575 271.318C458.514 267.426 457.69 262.999 458.212 258.626C460.671 241.631 460.671 224.372 458.212 207.377C457.687 203.004 458.51 198.575 460.57 194.682C462.631 190.79 465.832 187.619 469.744 185.596L483.301 178.118C485.931 176.735 488.251 174.83 490.119 172.519C491.986 170.208 493.362 167.54 494.163 164.679C494.94 161.902 495.158 158.999 494.807 156.138L352.278 242.895C351.993 245.482 351.595 248.062 351.085 250.629C347.589 268.203 338.961 284.345 326.291 297.015C313.621 309.685 297.478 318.313 279.905 321.809C262.331 325.305 244.116 323.51 227.561 316.654C211.007 309.797 196.858 298.185 186.904 283.287C185.224 280.773 183.677 278.185 182.265 275.534L51.6394 350.177Z" fill="gray"/>
<path d="M279.613 189.201L289.916 183.766C288.433 180.955 285.865 178.872 282.809 178C279.752 177.128 276.472 177.543 273.729 179.149L279.613 189.201ZM308.835 244.6L298.533 250.034C300.037 252.885 302.654 254.985 305.763 255.835C308.872 256.685 312.195 256.209 314.94 254.52L308.835 244.6ZM611.672 58.2381L477.231 62.0113L547.719 176.554L611.672 58.2381ZM11.8843 359.429L285.498 199.252L273.729 179.149L0.115429 339.325L11.8843 359.429ZM269.311 194.635L298.533 250.034L319.137 239.166L289.916 183.766L269.311 194.635ZM314.94 254.52L528.499 123.098L516.29 103.259L302.731 234.68L314.94 254.52Z" fill="gray"/>
</svg>
