<svg width="440" height="466" viewBox="0 0 440 466" fill="none" xmlns="http://www.w3.org/2000/svg">
<path d="M219.967 0L0 50.4186V218.289C0 390.115 220.056 466 220.056 466C220.056 466 439.939 389.511 439.939 218.289V50.4186L219.967 0ZM190.152 64.4327H249.781C251.407 64.4328 252.967 65.0791 254.118 66.2294C255.268 67.3796 255.914 68.9396 255.914 70.5664V94.3919H284.599C294.649 94.3919 302.932 102.676 302.932 112.726V356.403C302.932 366.453 294.649 374.737 284.599 374.737H155.331C145.281 374.737 137.006 366.453 137.006 356.403V112.726C137.006 102.676 145.281 94.3919 155.331 94.3919H184.015V70.5664C184.015 68.9396 184.662 67.3796 185.812 66.2294C186.962 65.0791 188.525 64.4328 190.152 64.4327ZM196.285 76.7V94.2481H243.648V76.7H196.285ZM155.334 106.659C151.868 106.659 149.277 109.26 149.277 112.726V356.403C149.277 359.869 151.868 362.469 155.334 362.469H284.602C288.067 362.469 290.668 359.869 290.668 356.403V112.726C290.668 109.26 288.067 106.659 284.602 106.659H155.334ZM160.164 119.482H279.77V153.361H160.164V119.482ZM160.164 168.552H279.77V202.43H160.164V168.552ZM160.164 217.621H279.77V251.5H160.164V217.621ZM160.164 266.69H279.77V300.569H160.164V266.69ZM160.164 315.759H279.77V349.638H160.164V315.759Z" fill="gray"/>
</svg>
