<svg width="273" height="273" viewBox="0 0 273 273" fill="none" xmlns="http://www.w3.org/2000/svg">
<circle cx="136.258" cy="136.258" r="136.258" fill="#0B2972"/>
<circle cx="169.171" cy="81.4954" r="4.6009" fill="#0F3CC9"/>
<path fill-rule="evenodd" clip-rule="evenodd" d="M162.677 116.263C162.63 116.144 162.587 116.022 162.548 115.898C161.761 113.345 163.285 110.609 165.952 109.786C168.619 108.964 171.419 110.366 172.207 112.918C172.994 115.471 171.47 118.207 168.803 119.029C167.532 119.422 166.231 119.308 165.132 118.806L156.317 130.499C156.683 131.016 156.974 131.597 157.17 132.233C158.207 135.597 156.199 139.204 152.683 140.288C149.167 141.373 145.476 139.524 144.438 136.16C143.4 132.795 145.409 129.189 148.925 128.104C150.532 127.608 152.176 127.726 153.587 128.321L162.677 116.263Z" fill="#FBBC05"/>
<path fill-rule="evenodd" clip-rule="evenodd" d="M191.269 159.815C191.209 159.647 191.155 159.475 191.108 159.299C190.2 155.913 192.21 152.433 195.596 151.526C198.982 150.618 202.462 152.628 203.369 156.014C204.277 159.4 202.267 162.88 198.881 163.787C196.922 164.312 194.931 163.861 193.426 162.731L182.159 177.177C182.893 178.07 183.452 179.13 183.77 180.319C184.966 184.782 182.317 189.37 177.854 190.566C173.391 191.762 168.803 189.113 167.607 184.65C166.411 180.186 169.06 175.599 173.523 174.403C175.579 173.852 177.662 174.117 179.427 174.999L191.269 159.815Z" fill="#FBBC05"/>
<path fill-rule="evenodd" clip-rule="evenodd" d="M213.278 149.127C212.747 148.936 212.237 148.66 211.767 148.296C209.372 146.437 208.936 142.988 210.795 140.592C212.653 138.196 216.102 137.761 218.498 139.619C220.894 141.478 221.33 144.927 219.471 147.323C218.756 148.244 217.806 148.876 216.771 149.198L216.513 168.829C217.447 169.067 218.348 169.496 219.158 170.125C222.316 172.575 222.891 177.121 220.44 180.279C217.99 183.438 213.444 184.012 210.286 181.562C207.128 179.112 206.553 174.565 209.004 171.407C210.05 170.058 211.479 169.18 213.019 168.809L213.278 149.127Z" fill="#FBBC05"/>
<path fill-rule="evenodd" clip-rule="evenodd" d="M195.443 150.945C195.984 150.79 196.558 150.715 197.151 150.735C200.182 150.84 202.554 153.381 202.45 156.411C202.346 159.442 199.805 161.814 196.774 161.71C193.744 161.606 191.372 159.065 191.476 156.034C191.516 154.868 191.917 153.799 192.568 152.931L181.277 136.855C180.38 137.209 179.397 137.389 178.371 137.354C174.376 137.217 171.249 133.867 171.387 129.872C171.524 125.878 174.873 122.75 178.868 122.888C182.863 123.025 185.99 126.375 185.853 130.369C185.794 132.075 185.15 133.622 184.121 134.824L195.443 150.945Z" fill="#FBBC05"/>
<circle cx="215.571" cy="195.127" r="4.36743" fill="#FBBC05"/>
<circle cx="190.08" cy="203.707" r="6.13454" fill="#FBBC05"/>
<path fill-rule="evenodd" clip-rule="evenodd" d="M119.93 49.0485C119.93 44.5312 123.592 40.8691 128.109 40.8691H158.101C162.618 40.8691 166.28 44.5312 166.28 49.0485V52.1158C166.28 54.1862 164.601 55.8647 162.531 55.8647H123.679C121.608 55.8647 119.93 54.1862 119.93 52.1158V49.0485ZM91.9899 55.866C86.3432 55.866 81.7656 60.4435 81.7656 66.0902V216.727C81.7656 222.374 86.3432 226.951 91.9899 226.951H125.154L128.659 219.448H97.4506C92.9333 219.448 89.2713 215.786 89.2713 211.268V71.5373C89.2713 67.0199 92.9333 63.3579 97.4506 63.3579H188.446C190.597 63.3579 192.554 64.188 194.014 65.5454L200.63 58.4006C198.83 56.8226 196.473 55.866 193.891 55.866H91.9899ZM187.017 73.1024C185.769 71.7192 183.963 70.8497 181.954 70.8497H103.909C100.144 70.8497 97.0925 73.9014 97.0925 77.6659V106.635C97.0925 110.399 100.144 113.451 103.909 113.451H149.656L187.017 73.1024ZM143.34 120.272H103.909C100.144 120.272 97.0925 123.324 97.0925 127.088V156.057C97.0925 159.821 100.144 162.873 103.909 162.873H155.086L158.915 154.675L121.653 143.693L143.34 120.272ZM151.895 169.705H103.909C100.144 169.705 97.0925 172.756 97.0925 176.521V205.49C97.0925 209.254 100.144 212.306 103.909 212.306H131.995L151.895 169.705Z" fill="white"/>
<path fill-rule="evenodd" clip-rule="evenodd" d="M150.448 166.636C145.215 164.747 142.503 158.974 144.392 153.741C144.453 153.571 144.519 153.403 144.588 153.238L132.233 147.895C130.697 151.431 126.656 153.21 122.979 151.883C119.152 150.502 117.169 146.281 118.55 142.454C119.822 138.93 123.502 136.97 127.065 137.759L136.204 123.576C134.491 121.713 133.847 118.985 134.765 116.44C136.08 112.795 140.101 110.907 143.745 112.222C147.39 113.537 149.278 117.557 147.963 121.202C146.648 124.847 142.628 126.735 138.983 125.42C138.874 125.38 138.766 125.338 138.66 125.294L129.825 139.004C131.711 140.38 132.83 142.581 132.847 144.898L146.169 150.659C148.81 147.533 153.211 146.215 157.286 147.685C162.519 149.573 165.231 155.346 163.343 160.579C161.454 165.812 155.681 168.524 150.448 166.636Z" fill="#FBBC05"/>
<path fill-rule="evenodd" clip-rule="evenodd" d="M137.225 194.608C136.043 196.538 134.028 197.934 131.608 198.244C127.37 198.787 123.494 195.791 122.952 191.553C122.409 187.315 125.404 183.439 129.643 182.896C133.881 182.353 137.757 185.349 138.299 189.587C138.396 190.337 138.381 191.076 138.268 191.787L154.194 199.38C155.401 197.674 157.291 196.461 159.527 196.174C163.765 195.632 167.641 198.627 168.183 202.865C168.395 204.515 168.07 206.11 167.344 207.475L180.399 217.565C181.537 216.518 182.999 215.801 184.649 215.589C188.888 215.046 192.763 218.042 193.306 222.28C193.849 226.518 190.853 230.394 186.615 230.937C182.559 231.457 178.835 228.735 178.047 224.786L151.779 223.961C151.102 225.439 149.7 226.546 147.969 226.768C145.303 227.109 142.865 225.225 142.523 222.559C142.182 219.893 144.066 217.455 146.732 217.113C149.281 216.787 151.621 218.495 152.121 220.975L178.035 221.789C178.158 221.158 178.358 220.551 178.626 219.98L165.455 209.799C164.362 210.709 163.007 211.328 161.492 211.522C157.254 212.065 153.378 209.069 152.836 204.831C152.716 203.897 152.768 202.98 152.968 202.113L137.225 194.608Z" fill="#FBBC05"/>
<circle cx="127.784" cy="219.114" r="7.83857" fill="#FBBC05"/>
<circle cx="229.196" cy="133.809" r="4.36743" fill="#FBBC05"/>
<circle cx="175.114" cy="99.9045" r="4.36743" fill="#FBBC05"/>
<path fill-rule="evenodd" clip-rule="evenodd" d="M202.563 62.61C202.632 66.7125 199.509 70.1255 195.484 70.4807L194.799 85.6355C197.178 86.3053 198.94 88.4716 198.983 91.0696C199.036 94.2416 196.508 96.8559 193.336 96.9088C190.164 96.9618 187.549 94.4333 187.497 91.2614C187.49 90.8544 187.525 90.4565 187.6 90.0721L171.431 85.0327C170.776 86.588 169.25 87.6916 167.454 87.7216C165.029 87.762 163.03 85.8285 162.989 83.4029C162.949 80.9773 164.882 78.9781 167.308 78.9376C169.271 78.9049 170.954 80.1646 171.547 81.9318L188.943 87.3538C189.689 86.5132 190.678 85.8922 191.803 85.6027L192.501 70.1675C189.375 69.2035 187.08 66.3175 187.023 62.8694C186.951 58.5779 190.372 55.0409 194.663 54.9693C198.955 54.8976 202.492 58.3185 202.563 62.61Z" fill="#FBBC05"/>
<circle cx="202.52" cy="113.946" r="4.94171" fill="#FBBC05"/>
</svg>
